<svg xmlns="http://www.w3.org/2000/svg" viewBox="0 0 20 20" aria-hidden="true" focusable="false"><path d="M15.012 10.64a2.001 2.001 0 1 0 2.002 2.001 2.003 2.003 0 0 0-2.002-2zm0 3.264a1.262 1.262 0 1 1 1.263-1.263 1.264 1.264 0 0 1-1.263 1.263z"></path><path d="M16.433 8.897a7.663 7.663 0 0 0-3.425-6.363 7.72 7.72 0 0 0-11.143 9.972c.007.008.004.02.011.027h.002a7.683 7.683 0 0 0 10.481 3.223c.551.762 1.2 1.513 1.82 2.224.199.229.387.444.567.655a.37.37 0 0 0 .28.13h.001a.37.37 0 0 0 .28-.128l.43-.496C17.267 16.385 19 14.395 19 12.61a3.985 3.985 0 0 0-2.567-3.714zM12.19 2.919c.135.078.276.143.407.23a6.944 6.944 0 0 1 2.78 3.716c-.027.016-.062.013-.085.037a2.286 2.286 0 0 1-1.846.47 2.63 2.63 0 0 1-1.035-.205.82.82 0 0 1-.488-.621 1.473 1.473 0 0 1 .005-.173 1.362 1.362 0 0 0-.046-.525c-.17-.507-.724-.753-1.494-.67-.322.035-.722.082-.866-.09-.133-.16-.016-.501.15-.75a3.214 3.214 0 0 1 2.41-1.39.367.367 0 0 0 .108-.03zM2.91 5.083a6.965 6.965 0 0 1 2.15-2.058 5.347 5.347 0 0 1 1.245 1.623l.055.094a1.537 1.537 0 0 1-.458 2.014c-.062.04-.129.077-.195.115a1.542 1.542 0 0 0-.729.668 1.337 1.337 0 0 0 .204 1.292c.046.072.096.144.147.215a1.73 1.73 0 0 1 .29.528 1.367 1.367 0 0 1-.395 1.054 1.674 1.674 0 0 1-.947.652 2.116 2.116 0 0 1-.452.014c-.126-.003-.251-.007-.378 0a2.42 2.42 0 0 0-1.155.38 6.981 6.981 0 0 1 .619-6.591zm5.803 10.861a6.933 6.933 0 0 1-2.874-.629 2.782 2.782 0 0 0 .61-.399 5.336 5.336 0 0 0 1.018-1.325c.043-.07.123-.202.178-.225a.274.274 0 0 1 .205.149 1.774 1.774 0 0 1 .114.653 1.612 1.612 0 0 0 .348.987 1.737 1.737 0 0 0 .42.318l.1.06a1.153 1.153 0 0 1 .366.382c-.161.012-.322.03-.485.03zm1.262-.127a1.816 1.816 0 0 0-.74-.916l-.118-.072a1.154 1.154 0 0 1-.248-.177 1.131 1.131 0 0 1-.163-.631 2.101 2.101 0 0 0-.194-.858.95.95 0 0 0-1.148-.492 1.167 1.167 0 0 0-.537.531 4.76 4.76 0 0 1-.87 1.148 1.342 1.342 0 0 1-1.084.403l-.009.028-.02-.012a6.934 6.934 0 0 1-2.223-2.42 1.665 1.665 0 0 1 .866-.307c.103-.006.209-.002.314.002a2.953 2.953 0 0 0 .601-.024 2.383 2.383 0 0 0 1.398-.913 1.97 1.97 0 0 0 .547-1.71 2.328 2.328 0 0 0-.406-.782l-.13-.19a.677.677 0 0 1-.15-.578.97.97 0 0 1 .411-.322c.08-.045.159-.089.234-.137a2.31 2.31 0 0 0 .647-3.115 7.898 7.898 0 0 0-1.187-1.63 6.797 6.797 0 0 1 5.31-.242A3.972 3.972 0 0 0 9.05 3.92a1.386 1.386 0 0 0-.104 1.646 1.619 1.619 0 0 0 1.528.355c.306-.036.646.011.698.166a.777.777 0 0 1 .008.242 2.338 2.338 0 0 0-.004.261 1.552 1.552 0 0 0 .901 1.247 3.28 3.28 0 0 0 1.335.283c.108.005.223.009.343.009a3.064 3.064 0 0 0 1.814-.504 7.017 7.017 0 0 1 .132 1.057 4.008 4.008 0 0 0-.684-.06h-.004a3.992 3.992 0 0 0-3.988 3.988 3.075 3.075 0 0 0 .07.617c.02.1.055.201.084.302.032.109.06.216.102.33.052.137.117.276.182.414.038.08.071.159.114.24.087.167.185.333.287.5.03.048.05.093.082.142a6.997 6.997 0 0 1-1.97.661zm5.204 1.839-.152.175-.293-.337a27.658 27.658 0 0 1-1.976-2.45q-.232-.339-.409-.65c-.06-.106-.106-.21-.16-.315-.053-.108-.113-.218-.156-.32-.053-.124-.087-.244-.125-.365-.024-.077-.057-.157-.074-.23a2.416 2.416 0 0 1-.07-.547l-.001-.006a3.238 3.238 0 0 1 .952-2.296 3.274 3.274 0 0 1 .481-.397 3.167 3.167 0 0 1 2.403-.496c.055.01.11.024.164.037a3.248 3.248 0 0 1 2.497 3.152c0 1.507-1.708 3.469-3.08 5.045z"></path></svg>