<svg viewBox="0 0 25 25" xmlns="http://www.w3.org/2000/svg" aria-label="Facebook" role="img" focusable="false"><path d="m10.563 20 .012-6.48H8.89a.397.397 0 0 1-.397-.396l-.008-2.09a.396.396 0 0 1 .397-.398h1.68V8.618c0-2.343 1.431-3.618 3.52-3.618h1.715c.22 0 .397.178.397.397V7.16a.397.397 0 0 1-.397.397h-1.052c-1.136 0-1.364.54-1.356 1.333v1.747h2.497c.238 0 .422.208.394.444l-.247 2.09a.394.394 0 0 1-.395.35H13.4L13.39 20z"></path><path d="M12.5 1C18.841 1 24 6.159 24 12.5S18.841 24 12.5 24 1 18.841 1 12.5 6.159 1 12.5 1m0-1C5.596 0 0 5.596 0 12.5S5.596 25 12.5 25 25 19.404 25 12.5 19.404 0 12.5 0z"></path></svg>