<svg class="i-pwa-heart" viewBox="0 0 13 11" xmlns="http://www.w3.org/2000/svg" aria-hidden="true" role="img" focusable="false"><g fill="none">
<!-- <path class="i-pwa-heart__fill" d="M5.095 10.43c.38.388.88.576 1.379.57.498.007.998-.182 1.379-.57l4.094-4.16a3.73 3.73 0 0 0 0-5.195 3.544 3.544 0 0 0-5.085 0l-.364.367-.36-.367a3.543 3.543 0 0 0-5.084 0 3.727 3.727 0 0 0 0 5.194l4.04 4.16Z" fill="#000"></path> -->
<path class="i-pwa-heart__stroke" d="M5.453 10.08c.272.278.634.425 1.028.42.378.005.741-.141 1.015-.42l4.093-4.16a3.23 3.23 0 0 0 0-4.495 3.045 3.045 0 0 0-4.372.002l-.721.726-.355-.36-.36-.368a3.043 3.043 0 0 0-4.37 0 3.227 3.227 0 0 0 .001 4.496l4.04 4.16Z" stroke="#000"></path></g></svg>