<svg viewBox="0 0 25 25" xmlns="http://www.w3.org/2000/svg" aria-label="Instagram" role="img" focusable="false"><path d="M12.5 1C18.841 1 24 6.159 24 12.5S18.841 24 12.5 24 1 18.841 1 12.5 6.159 1 12.5 1m0-1C5.596 0 0 5.596 0 12.5S5.596 25 12.5 25 25 19.404 25 12.5 19.404 0 12.5 0z"></path><path d="M15.195 5.833h-5.39a3.977 3.977 0 0 0-3.972 3.972v5.39a3.977 3.977 0 0 0 3.972 3.972h5.39a3.977 3.977 0 0 0 3.972-3.972v-5.39a3.977 3.977 0 0 0-3.972-3.972zm2.63 9.362a2.63 2.63 0 0 1-2.63 2.63h-5.39a2.63 2.63 0 0 1-2.63-2.63v-5.39a2.63 2.63 0 0 1 2.63-2.63h5.39a2.63 2.63 0 0 1 2.63 2.63z"></path><path d="M12.5 9.052c-1.901 0-3.448 1.547-3.448 3.448s1.547 3.448 3.448 3.448 3.448-1.547 3.448-3.448-1.547-3.448-3.448-3.448zm0 5.555a2.107 2.107 0 1 1 0-4.214 2.107 2.107 0 0 1 0 4.214z"></path><circle cx="15.955" cy="9.077" r=".826"></circle></svg>