<svg xmlns="http://www.w3.org/2000/svg" viewBox="0 0 24 24" style="enable-background:new 0 0 24 24" xml:space="preserve" aria-hidden="true" role="img" focusable="false"><path d="M12 11.52a2.97 2.97 0 0 1-2.967-2.966c0-1.638 1.33-2.97 2.967-2.97s2.967 1.332 2.967 2.97A2.97 2.97 0 0 1 12 11.52zm0-5.167a2.202 2.202 0 0 0-2.199 2.2c0 1.213.987 2.2 2.199 2.2s2.199-.987 2.199-2.2-.987-2.2-2.199-2.2z"></path><path d="M12 19.287a.385.385 0 0 1-.278-.12c-.263-.277-6.44-6.84-6.44-10.449A6.726 6.726 0 0 1 12.002 2a6.725 6.725 0 0 1 6.716 6.718c0 3.61-6.174 10.171-6.437 10.45a.385.385 0 0 1-.28.12zM12 2.77a5.956 5.956 0 0 0-5.949 5.95c0 2.896 4.738 8.286 5.95 9.617 1.211-1.33 5.948-6.721 5.948-9.618 0-3.28-2.669-5.95-5.948-5.95z"></path><path d="M21.608 22H2.392a.385.385 0 0 1-.344-.557l2.474-4.939a.385.385 0 0 1 .344-.212H7.67a.384.384 0 1 1 0 .769H5.103l-2.089 4.17h17.972l-2.09-4.17H16.33a.384.384 0 1 1 0-.769h2.804c.145 0 .278.082.344.212l2.474 4.94a.386.386 0 0 1-.344.556z"></path></svg>