<svg baseProfile="tiny" xmlns="http://www.w3.org/2000/svg" viewBox="0 0 24 24" xml:space="preserve" aria-label="Sign up for email" role="img" focusable="false"><path d="M18.095 5.108H5.905C4.855 5.108 4 5.963 4 7.013v9.974c0 1.05.855 1.905 1.905 1.905h12.19c1.05 0 1.905-.855 1.905-1.905V7.013c0-1.05-.854-1.905-1.905-1.905zm1.143 1.905v9.974c0 .152-.031.297-.086.43L14.261 12l4.893-5.411c.053.131.084.274.084.424zM18.095 5.87c.2 0 .385.056.549.147l-6.467 7.151a.259.259 0 0 1-.35.006L5.166 6.15c.2-.171.456-.279.74-.279h12.19zM4.847 17.415a1.134 1.134 0 0 1-.085-.428V7.013c0-.056.009-.11.017-.164l4.922 5.19-4.854 5.376zm1.058.715c-.199 0-.383-.056-.546-.146l4.868-5.39 1.053 1.11a1.013 1.013 0 0 0 1.451-.013l1.016-1.123 4.892 5.418a1.128 1.128 0 0 1-.544.144H5.905z"></path></svg>