<svg viewBox="0 0 25 25" xmlns="http://www.w3.org/2000/svg" aria-label="Pinterest" role="img" focusable="false"><path d="M12.5 1C18.841 1 24 6.159 24 12.5S18.841 24 12.5 24 1 18.841 1 12.5 6.159 1 12.5 1m0-1C5.596 0 0 5.596 0 12.5S5.596 25 12.5 25 25 19.404 25 12.5 19.404 0 12.5 0z"></path><path d="M19.997 12.72A7.5 7.5 0 0 0 12.388 5C8.282 5.06 4.968 8.453 5 12.56a7.5 7.5 0 0 0 4.224 6.69c.144.07.31-.04.304-.2-.018-.482-.002-.998.094-1.412.095-.409.468-1.988.713-3.025.12-.505.134-1.03.038-1.54a3.15 3.15 0 0 1-.054-.581c0-1.109.642-1.937 1.442-1.937.68 0 1.009.511 1.009 1.123 0 .684-.436 1.707-.66 2.655-.188.793.398 1.44 1.18 1.44 1.417 0 2.506-1.494 2.506-3.65 0-1.91-1.371-3.244-3.33-3.244-2.268 0-3.6 1.702-3.6 3.46 0 .685.265 1.42.594 1.82a.238.238 0 0 1 .055.228c-.06.252-.195.793-.221.904-.035.146-.116.177-.267.107-.996-.464-1.618-1.92-1.618-3.089 0-2.515 1.827-4.824 5.267-4.824 2.766 0 4.915 1.97 4.915 4.604 0 2.748-1.732 4.959-4.137 4.959-.635 0-1.24-.26-1.597-.612a.2.2 0 0 0-.333.09l-.394 1.502c-.117.452-.365.978-.613 1.437a.212.212 0 0 0 .135.306 7.513 7.513 0 0 0 1.919.23c3.935-.037 7.313-3.346 7.426-7.28z"></path></svg>