<svg xmlns="http://www.w3.org/2000/svg" viewBox="0 0 24 24" style="enable-background:new 0 0 24 24" xml:space="preserve" aria-hidden="true" role="img" focusable="false"><path d="M15.332 21.23h-2.947v-5.557h2.947a.385.385 0 0 0 .385-.396c-.05-1.814-.825-3.206-1.288-4.038-.15-.268-.335-.601-.343-.7.01-.347.827-2.897 1.61-5.16a.385.385 0 0 0-.213-.48l-2.93-1.244-.25-1.341c-.034-.182-.26-.314-.444-.314a.385.385 0 0 0-.379.315l-.248 1.346-2.724 1.241a.385.385 0 0 0-.21.46l1.514 5.124C8.298 13.103 8.283 15.2 8.283 15.29c0 .212.173.384.385.384h2.947v5.558H8.668a.384.384 0 1 0 0 .769h6.664a.384.384 0 1 0 0-.77zm-4.774-10.496a.386.386 0 0 0 .039-.306L9.13 5.464l2.602-1.186a.384.384 0 0 0 .16-.136c.042.062.1.11.17.14l2.789 1.184c-.477 1.39-1.535 4.535-1.535 5.071 0 .285.175.6.44 1.077.419.751 1.034 1.856 1.167 3.29H9.079c.077-.706.37-2.306 1.48-4.17z"></path></svg>