<svg viewBox="0 0 25 25" xmlns="http://www.w3.org/2000/svg" aria-label="Twitter" role="img" focusable="false"><path d="M12.5 1C18.841 1 24 6.159 24 12.5S18.841 24 12.5 24 1 18.841 1 12.5 6.159 1 12.5 1m0-1C5.596 0 0 5.596 0 12.5S5.596 25 12.5 25 25 19.404 25 12.5 19.404 0 12.5 0z"></path><path d="M20.239 8.024a5.554 5.554 0 0 1-.967.326c.366-.348.64-.782.796-1.268a.158.158 0 0 0-.231-.184 5.58 5.58 0 0 1-1.479.611.392.392 0 0 1-.351-.087 3.024 3.024 0 0 0-2-.755c-.32 0-.642.05-.959.148a2.93 2.93 0 0 0-1.974 2.11c-.09.375-.113.75-.072 1.114a.112.112 0 0 1-.121.122 7.929 7.929 0 0 1-5.45-2.912.158.158 0 0 0-.259.02 3.02 3.02 0 0 0 .492 3.676 2.71 2.71 0 0 1-.69-.267.158.158 0 0 0-.234.137 3.028 3.028 0 0 0 1.766 2.789 2.723 2.723 0 0 1-.574-.048.158.158 0 0 0-.18.204 3.03 3.03 0 0 0 2.393 2.06 5.58 5.58 0 0 1-3.125.95h-.35a.232.232 0 0 0-.226.174.24.24 0 0 0 .115.265 8.3 8.3 0 0 0 4.17 1.124c1.282 0 2.48-.254 3.564-.756a7.87 7.87 0 0 0 2.607-1.954 8.567 8.567 0 0 0 1.597-2.674c.355-.948.543-1.96.543-2.927v-.046c0-.155.07-.3.192-.4.465-.377.87-.821 1.203-1.32.088-.131-.051-.296-.196-.232z"></path></svg>