<svg xmlns="http://www.w3.org/2000/svg" viewBox="0 0 20 20" aria-hidden="true" role="img" focusable="false"><path d="M10 2.5a7.5 7.5 0 1 0 7.5 7.5A7.508 7.508 0 0 0 10 2.5zm0 14.286a6.751 6.751 0 0 1-3.789-1.159 3.821 3.821 0 0 1 7.575.002A6.753 6.753 0 0 1 10 16.786zm4.429-1.656a4.543 4.543 0 0 0-8.858 0 6.786 6.786 0 1 1 8.858 0zm-4.43-9.512a2.463 2.463 0 1 0 2.463 2.463A2.466 2.466 0 0 0 10 5.618zm0 4.211a1.748 1.748 0 1 1 1.749-1.748A1.75 1.75 0 0 1 10 9.83z" fill-rule="evenodd"></path></svg>