<svg viewBox="0 0 25 25" xmlns="http://www.w3.org/2000/svg" aria-label="Youtube" role="img" focusable="false"><path d="M12.5 1C18.841 1 24 6.159 24 12.5S18.841 24 12.5 24 1 18.841 1 12.5 6.159 1 12.5 1m0-1C5.596 0 0 5.596 0 12.5S5.596 25 12.5 25 25 19.404 25 12.5 19.404 0 12.5 0z"></path><path d="M16.885 7.193h-8.77A3.115 3.115 0 0 0 5 10.308v4.384a3.115 3.115 0 0 0 3.115 3.115h8.77A3.115 3.115 0 0 0 20 14.692v-4.384a3.115 3.115 0 0 0-3.115-3.115zm-2.107 5.52-4.102 1.957a.165.165 0 0 1-.235-.15v-4.034c0-.123.13-.202.239-.147l4.101 2.079a.165.165 0 0 1-.003.295z"></path></svg>